#!OML:ASF E:\emotionWalksFemale\Project 1\Capture day 1\Session 1\Female1.ASF
:FULLY-SPECIFIED
:DEGREES
1041
root 23.2491 15.2477 -31.7684 361.544 32.2057 362.386
lowerback 7.68094 0.442055 2.4073
upperback -4.10069 0.880822 0.0646139
thorax -8.62266 0.295497 -1.41744
lowerneck 6.48614 -12.1499 -17.786
upperneck 0.529666 -17.7691 20.3116
head 2.5812 -9.13853 8.56616
rclavicle -1.63003e-014 -2.06736e-014
rhumerus -42.311 15.8822 -84.9586
rradius 59.2033
rwrist 8.13556
rhand -3.79584 -48.9924
rfingers 7.12502
rthumb 21.95 -77.7671
lclavicle -1.63003e-014 -2.06736e-014
lhumerus -58.8841 12.7581 61.2649
lradius 38.4145
lwrist -9.89699
lhand 1.79546 -28.9678
lfingers 7.12502
lthumb 27.309 -0.925651
rfemur 8.60056 16.49 38.474
rtibia 10.0321
rfoot -14.9443 -12.7291
rtoes 6.47803
lfemur -29.6917 -18.7364 -10.8601
ltibia 38.148
lfoot -18.8444 17.9074
ltoes -44.3568
1042
root 23.3255 15.2775 -31.7059 363.055 31.2735 363.63
lowerback 7.11917 0.702004 1.92029
upperback -4.35416 1.12421 -0.472339
thorax -8.55462 0.424524 -1.74109
lowerneck 6.50607 -12.3856 -17.35
upperneck 0.512118 -18.0522 20.1143
head 2.56734 -9.27615 8.41057
rclavicle -5.84924e-014 -1.11319e-014
rhumerus -42.1245 15.1955 -84.6931
rradius 59.3064
rwrist 8.28581
rhand -3.11392 -49.7766
rfingers 7.12502
rthumb 22.6046 -78.4731
lclavicle -5.84924e-014 -1.11319e-014
lhumerus -58.567 12.7761 60.5756
lradius 37.7007
lwrist -10.6781
lhand 2.3183 -29.3235
lfingers 7.12502
lthumb 27.809 -1.36108
rfemur 8.93461 16.6943 36.8573
rtibia 8.6049
rfoot -14.3689 -11.869
rtoes 6.16227
lfemur -30.8117 -20.5255 -11.305
ltibia 36.1144
lfoot -18.8849 18.2111
ltoes -42.221
1043
root 23.391 15.2807 -31.61 363.011 30.189 363.239
lowerback 6.56097 0.778841 1.84776
upperback -4.08594 1.24029 0.0114719
thorax -7.94431 0.510729 -1.19107
lowerneck 6.25286 -12.3848 -17.8067
upperneck 0.179915 -18.0067 20.073
head 2.54323 -9.24694 8.45546
rclavicle -4.01545e-014 -1.74931e-014
rhumerus -41.2939 15.9437 -83.9996
rradius 59.4037
rwrist 7.7358
rhand -3.04638 -49.1407
rfingers 7.12502
rthumb 22.6695 -77.8292
lclavicle -4.01545e-014 -1.74931e-014
lhumerus -58.4636 16.033 58.2445
lradius 35.842
lwrist -14.3755
lhand 2.57932 -30.605
lfingers 7.12502
lthumb 28.0585 -2.68323
rfemur 10.2658 16.8498 37.136
rtibia 6.76024
rfoot -13.5272 -11.0324
rtoes 7.06305
lfemur -31.3854 -22.2103 -10.1539
ltibia 34.3339
lfoot -19.3355 18.481
ltoes -39.071
1044
root 23.4602 15.2807 -31.5155 363.025 29.1827 363.023
lowerback 6.48381 0.875467 2.16926
upperback -4.13106 1.40223 0.026256
thorax -7.93637 0.572904 -1.37614
lowerneck 6.3971 -12.3086 -17.8559
upperneck -0.0119892 -17.909 20.2199
head 2.46472 -9.21018 8.53646
rclavicle 2.69353e-014 6.36111e-015
rhumerus -41.0696 16.1133 -83.8993
rradius 59.4588
rwrist 7.76071
rhand -3.39202 -48.5223
rfingers 7.12502
rthumb 22.3377 -77.251
lclavicle 2.69353e-014 6.36111e-015
lhumerus -58.7219 15.2141 58.661
lradius 36.0339
lwrist -14.5912
lhand -0.0212732 -28.6195
lfingers 7.12502
lthumb 25.57 -0.31579
rfemur 11.3503 16.9127 37.2473
rtibia 5.50438
rfoot -12.9952 -10.2457
rtoes 8.13755
lfemur -31.8852 -23.8892 -9.17207
ltibia 32.4518
lfoot -19.2972 19.1151
ltoes -34.9646
1045
root 23.5341 15.2739 -31.4197 362.838 28.0197 362.894
lowerback 6.57667 1.05417 2.32419
upperback -4.01796 1.66456 0.128945
thorax -7.85787 0.697638 -1.38973
lowerneck 6.45152 -12.3203 -18.0194
upperneck -0.258694 -17.918 20.2952
head 2.40938 -9.22174 8.59312
rclavicle 4.50247e-014 3.18055e-015
rhumerus -40.8204 16.1814 -83.5177
rradius 59.6365
rwrist 7.84524
rhand -4.14156 -48.3027
rfingers 7.12502
rthumb 21.618 -77.1159
lclavicle 4.50247e-014 3.18055e-015
lhumerus -58.8739 15.0253 58.6532
lradius 36.0891
lwrist -14.7272
lhand -0.712245 -28.0882
lfingers 7.12502
lthumb 24.908 0.308832
rfemur 14.8407 17.0519 37.3352
rtibia 4.77083e-015
rfoot -10.2511 -9.03158
rtoes 9.21472
lfemur -32.1436 -25.1931 -8.54166
ltibia 30.9608
lfoot -19.8463 19.909
ltoes -33.6758
1046
root 23.6055 15.2646 -31.3202 362.845 27.2738 362.794
lowerback 6.46143 1.09558 2.39056
upperback -3.92792 1.73446 0.312514
thorax -7.69519 0.736956 -1.23869
lowerneck 6.3305 -12.3689 -18.1658
upperneck -0.563947 -17.9362 20.1748
head 2.34645 -9.22691 8.57176
rclavicle 1.23246e-014 7.15625e-015
rhumerus -40.418 16.2458 -82.8625
rradius 59.7783
rwrist 7.65377
rhand -4.08024 -49.5079
rfingers 7.12502
rthumb 21.6769 -78.3144
lclavicle 1.23246e-014 7.15625e-015
lhumerus -58.9732 15.1348 58.5053
lradius 36.1088
lwrist -14.5865
lhand -0.480918 -28.0613
lfingers 7.12502
lthumb 25.1297 0.304814
rfemur 15.3014 16.8403 37.3428
rtibia 4.92986e-014
rfoot -10.2691 -8.44086
rtoes 9.36446
lfemur -32.7979 -26.5447 -7.84026
ltibia 29.6028
lfoot -20.107 21.0608
ltoes -34.1029
1047
root 23.6729 15.2634 -31.214 362.825 26.2853 362.6
lowerback 6.31888 1.21104 2.74699
upperback -3.89389 1.91581 0.277385
thorax -7.55756 0.808777 -1.49384
lowerneck 6.31061 -12.2991 -18.0492
upperneck -0.836035 -17.7982 20.2586
head 2.24267 -9.16145 8.60278
rclavicle -4.20927e-014 0
rhumerus -40.1841 16.2771 -82.742
rradius 59.729
rwrist 8.16709
rhand -3.06024 -48.7057
rfingers 7.12502
rthumb 22.6562 -77.3959
lclavicle -4.20927e-014 0
lhumerus -58.9964 14.7656 58.1948
lradius 36.2168
lwrist -14.0527
lhand -0.521945 -27.7709
lfingers 7.12502
lthumb 25.0903 0.600691
rfemur 15.8332 16.8616 37.4686
rtibia -3.02153e-014
rfoot -10.3539 -7.90734
rtoes 8.28123
lfemur -33.4398 -28.1005 -6.86423
ltibia 28.4017
lfoot -20.6356 22.8384
ltoes -35.1886
1048
root 23.7367 15.261 -31.1102 362.906 25.2034 362.474
lowerback 6.27787 1.35807 3.00568
upperback -3.97426 2.13383 0.21218
thorax -7.59966 0.898958 -1.73439
lowerneck 6.31031 -12.2546 -17.9779
upperneck -0.867603 -17.7304 20.303
head 2.21846 -9.12902 8.61512
rclavicle -3.08116e-015 0
rhumerus -40.025 16.1665 -82.6295
rradius 59.6746
rwrist 7.90853
rhand -3.48207 -48.6671
rfingers 7.12502
rthumb 22.2512 -77.4061
lclavicle -3.08116e-015 0
lhumerus -59.2343 14.5336 57.5929
lradius 36.3426
lwrist -13.8917
lhand -0.712875 -27.9523
lfingers 7.12502
lthumb 24.9074 0.444746
rfemur 16.286 16.9921 37.5021
rtibia -3.18055e-014
rfoot -10.4417 -7.32531
rtoes 7.92066
lfemur -34.2997 -30.0795 -5.61153
ltibia 27.4232
lfoot -22.1367 23.7255
ltoes -33.3143
1049
root 23.7971 15.253 -31.0054 362.904 24.0386 362.366
lowerback 6.27652 1.50355 3.16064
upperback -3.99732 2.34299 0.195997
thorax -7.60709 0.992505 -1.8643
lowerneck 6.34025 -12.2732 -18.0075
upperneck -0.824934 -17.7687 20.2754
head 2.233 -9.14924 8.60761
rclavicle -4.17945e-014 -1.35174e-014
rhumerus -39.9021 16.1813 -82.4927
rradius 59.8893
rwrist 7.5999
rhand -3.59804 -49.0694
rfingers 7.12502
rthumb 22.1399 -77.8217
lclavicle -4.17945e-014 -1.35174e-014
lhumerus -59.5185 14.7799 56.9598
lradius 36.5609
lwrist -13.6748
lhand -1.30472 -27.2735
lfingers 7.12502
lthumb 24.3401 1.20095
rfemur 16.8315 17.1733 37.5438
rtibia 3.33958e-014
rfoot -10.4932 -6.71804
rtoes 7.64921
lfemur -35.2276 -32.5572 -4.07267
ltibia 26.6701
lfoot -23.7904 25.1451
ltoes -29.7801
1050
root 23.8527 15.2385 -30.8862 362.775 23.1174 362.279
lowerback 6.2867 1.58195 3.0801
upperback -3.97606 2.44475 0.265139
thorax -7.59073 1.04904 -1.75903
lowerneck 6.29155 -12.2659 -18.0107
upperneck -0.726224 -17.7621 20.1812
head 2.2587 -9.14171 8.57264
rclavicle -3.13583e-014 -3.97569e-015
rhumerus -40.0101 16.2673 -82.292
rradius 60.1992
rwrist 8.01401
rhand -3.62555 -49.1134
rfingers 7.12502
rthumb 22.1135 -77.8688
lclavicle -3.13583e-014 -3.97569e-015
lhumerus -59.8427 15.1777 56.2272
lradius 36.7139
lwrist -13.7708
lhand -1.86498 -27.0573
lfingers 7.12502
lthumb 23.8029 1.4882
rfemur 17.5917 17.0632 37.6658
rtibia 1.59028e-014
rfoot -10.6209 -6.1555
rtoes 8.04686
lfemur -36.1189 -35.1995 -2.49114
ltibia 26.0886
lfoot -25.3362 26.7383
ltoes -28.7997
1051
root 23.9153 15.2302 -30.7764 362.693 22.0708 362.149
lowerback 6.43993 1.70799 3.17715
upperback -4.00677 2.63615 0.352821
thorax -7.70362 1.13748 -1.75132
lowerneck 6.04584 -12.2727 -18.1012
upperneck -0.521211 -17.7641 20.04
head 2.35242 -9.12669 8.516
rclavicle 4.70126e-014 -5.56597e-015
rhumerus -40.0437 16.3532 -81.9582
rradius 60.5165
rwrist 7.77455
rhand -2.78547 -49.1569
rfingers 7.12502
rthumb 22.9198 -77.8146
lclavicle 4.70126e-014 -5.56597e-015
lhumerus -60.1115 15.2724 55.7604
lradius 36.8334
lwrist -13.5545
lhand -2.3503 -27.5293
lfingers 7.12502
lthumb 23.3374 1.07607
rfemur 18.2373 17.1115 37.7278
rtibia -2.38542e-014
rfoot -10.6434 -5.57514
rtoes 8.5894
lfemur -37.0172 -37.2959 -1.04743
ltibia 25.656
lfoot -25.9866 28.1401
ltoes -29.0403
1052
root 23.9813 15.223 -30.6674 362.652 21.1498 361.962
lowerback 6.26388 1.76997 3.3786
upperback -3.91039 2.7381 0.491428
thorax -7.49101 1.18657 -1.72181
lowerneck 5.93219 -12.223 -18.3382
upperneck -0.596471 -17.6895 20.0921
head 2.36204 -9.08574 8.56797
rclavicle -9.39258e-014 -2.3059e-014
rhumerus -39.6822 16.5439 -81.5059
rradius 60.3836
rwrist 8.05189
rhand -3.37825 -49.0589
rfingers 7.12502
rthumb 22.3509 -77.786
lclavicle -9.39258e-014 -2.3059e-014
lhumerus -60.2033 15.2625 55.5703
lradius 37.021
lwrist -12.9338
lhand -2.68992 -28.0003
lfingers 7.12502
lthumb 23.0115 0.646006
rfemur 18.7923 17.0666 37.7954
rtibia 4.29375e-014
rfoot -10.6483 -5.03924
rtoes 8.34866
lfemur -37.7833 -38.4372 -0.0538211
ltibia 25.4328
lfoot -26.0333 28.4518
ltoes -30.1086
1053
root 24.0427 15.2153 -30.5593 362.695 20.4343 361.767
lowerback 6.13536 1.7761 3.6881
upperback -3.92266 2.77169 0.511786
thorax -7.41595 1.18949 -1.87242
lowerneck 6.13443 -12.108 -18.364
upperneck -0.957206 -17.5275 20.318
head 2.21867 -9.02215 8.68711
rclavicle -8.69683e-015 8.74653e-015
rhumerus -39.382 16.4588 -81.1651
rradius 60.175
rwrist 8.89126
rhand -2.80549 -49.1933
rfingers 7.12502
rthumb 22.9006 -77.8534
lclavicle -8.69683e-015 8.74653e-015
lhumerus -60.2755 15.0656 55.217
lradius 37.2568
lwrist -12.3495
lhand -3.38204 -27.7357
lfingers 7.12502
lthumb 22.3473 0.991857
rfemur 19.186 16.861 37.7975
rtibia 4.77083e-014
rfoot -10.6466 -4.3732
rtoes 8.9291
lfemur -38.2363 -38.5438 0.365883
ltibia 25.1363
lfoot -26.7302 27.3833
ltoes -30.1395
1054
root 24.1014 15.2156 -30.4458 362.686 19.5581 361.541
lowerback 6.10007 1.87037 4.00196
upperback -3.99413 2.92716 0.495391
thorax -7.44883 1.24766 -2.08334
lowerneck 6.34491 -12.0522 -18.3015
upperneck -1.21696 -17.4514 20.486
head 2.1058 -9.00025 8.76345
rclavicle 4.47762e-014 1.03368e-014
rhumerus -39.3285 16.2115 -80.918
rradius 59.9543
rwrist 9.7558
rhand -2.02474 -49.1605
rfingers 7.12502
rthumb 23.6497 -77.7258
lclavicle 4.47762e-014 1.03368e-014
lhumerus -60.3337 15.1026 54.5264
lradius 37.2752
lwrist -12.3451
lhand -4.42422 -27.2856
lfingers 7.12502
lthumb 21.3465 1.5586
rfemur 19.6114 16.8023 37.8297
rtibia -3.02153e-014
rfoot -10.575 -3.58503
rtoes 9.71841
lfemur -38.2331 -38.0544 0.335853
ltibia 24.9222
lfoot -26.8938 26.2781
ltoes -28.598
1055
root 24.1662 15.1972 -30.3311 362.653 18.4913 361.374
lowerback 6.17779 2.01991 4.24912
upperback -4.09388 3.15874 0.496571
thorax -7.5753 1.34379 -2.25322
lowerneck 6.38022 -12.0879 -18.2894
upperneck -1.1063 -17.5186 20.431
head 2.13808 -9.03381 8.73661
rclavicle 1.76421e-014 -5.56597e-015
rhumerus -39.3748 16.0026 -80.621
rradius 59.9331
rwrist 9.52485
rhand -0.797263 -49.5354
rfingers 7.12502
rthumb 24.8265 -77.9436
lclavicle 1.76421e-014 -5.56597e-015
lhumerus -60.5058 15.2835 53.644
lradius 37.3267
lwrist -11.8718
lhand -3.90653 -27.724
lfingers 7.12502
lthumb 21.8437 1.0631
rfemur 20.1695 16.9021 37.848
rtibia -8.26944e-014
rfoot -10.4265 -2.94079
rtoes 9.9916
lfemur -37.7987 -36.7094 -0.470155
ltibia 24.7708
lfoot -23.9309 26.3478
ltoes -36.3945
